<?xml version="1.0" encoding="UTF-8" standalone="no"?>
<!-- Uploaded to: SVG Repo, www.svgrepo.com, Generator: SVG Repo Mixer Tools -->

<svg
   width="800px"
   height="800px"
   viewBox="0 0 36 36"
   aria-hidden="true"
   role="img"
   class="iconify iconify--twemoji"
   preserveAspectRatio="xMidYMid meet"
   version="1.1"
   id="svg1"
   sodipodi:docname="club.svg"
   inkscape:version="1.3 (0e150ed6c4, 2023-07-21)"
   xmlns:inkscape="http://www.inkscape.org/namespaces/inkscape"
   xmlns:sodipodi="http://sodipodi.sourceforge.net/DTD/sodipodi-0.dtd"
   xmlns="http://www.w3.org/2000/svg"
   xmlns:svg="http://www.w3.org/2000/svg">
  <defs
     id="defs1" />
  <sodipodi:namedview
     id="namedview1"
     pagecolor="#ffffff"
     bordercolor="#000000"
     borderopacity="0.25"
     inkscape:showpageshadow="2"
     inkscape:pageopacity="0.0"
     inkscape:pagecheckerboard="0"
     inkscape:deskcolor="#d1d1d1"
     inkscape:zoom="1.00375"
     inkscape:cx="400"
     inkscape:cy="400"
     inkscape:window-width="1920"
     inkscape:window-height="1024"
     inkscape:window-x="0"
     inkscape:window-y="26"
     inkscape:window-maximized="1"
     inkscape:current-layer="svg1" />
  <path
     fill="#31373D"
     d="M25.5 28a7.5 7.5 0 0 0 7.5-7.5a7.5 7.5 0 0 0-7.5-7.5a7.45 7.45 0 0 0-3.73 1h-.21a6.972 6.972 0 0 0 3.423-6a6.983 6.983 0 1 0-13.967 0a6.972 6.972 0 0 0 3.423 6h-.208c-1.1-.633-2.371-1-3.731-1a7.5 7.5 0 0 0 0 15a7.476 7.476 0 0 0 5.46-2.368C15.549 29.753 11.205 33 7 33h.5a1.5 1.5 0 1 0 0 3h21a1.5 1.5 0 0 0 0-3h.5c-4.205 0-8.549-3.248-8.959-7.369A7.47 7.47 0 0 0 25.5 28z"
     id="path1"
     style="fill:#008000" />
</svg>
