<?xml version="1.0" encoding="iso-8859-1"?>
<!-- Uploaded to: SVG Repo, www.svgrepo.com, Generator: SVG Repo Mixer Tools -->
<svg height="800px" width="800px" version="1.1" id="Layer_1" xmlns="http://www.w3.org/2000/svg" xmlns:xlink="http://www.w3.org/1999/xlink" 
	 viewBox="0 0 512 512" xml:space="preserve">
<path style="fill:#F79D1E;" d="M76.889,263.064v153.425c0,25.251,20.543,45.793,45.793,45.793H391.03
	c25.251,0,45.794-20.543,45.794-45.793V263.064H76.889z"/>
<path style="fill:#39B7B6;" d="M413.363,49.717c-91.196,0-165.391,74.195-165.391,165.391v42.051c0,2.558,1.219,4.963,3.281,6.475
	l84.569,62c1.415,1.038,3.083,1.553,4.747,1.553c1.797,0,3.59-0.602,5.062-1.796l86.513-70.246c1.878-1.524,2.967-3.814,2.967-6.232
	v-42.051c0-0.492-0.045-0.985-0.136-1.469c-2.867-15.408,0.603-30.893,9.767-43.605c9.164-12.712,22.762-20.897,38.286-23.044
	l3.646-0.505c3.972-0.55,6.928-3.945,6.928-7.953v-0.328C493.603,85.713,457.607,49.717,413.363,49.717z"/>
<path style="fill:#FBB03B;" d="M76.889,263.064v153.425c0,25.251,20.543,45.793,45.793,45.793h134.174V263.064H76.889z"/>
<path style="fill:#D62D46;" d="M98.638,49.717c-44.244,0-80.24,35.995-80.24,80.24v0.329c0,4.008,2.957,7.402,6.927,7.953
	l3.647,0.505c15.523,2.148,29.121,10.332,38.286,23.044c9.166,12.713,12.634,28.199,9.766,43.605
	c-0.09,0.484-0.135,0.976-0.135,1.469v29.549c0,2.104,0.825,4.124,2.298,5.624l86.093,87.717c1.57,1.599,3.648,2.404,5.731,2.404
	c1.966,0,3.936-0.718,5.483-2.163l84.99-79.471c1.625-1.519,2.546-3.642,2.546-5.865v-29.549
	C264.029,123.912,189.835,49.717,98.638,49.717z"/>
<path style="fill:#0E4151;" d="M76.889,399.852v16.638c0,25.251,20.543,45.793,45.793,45.793H391.03
	c25.251,0,45.794-20.543,45.794-45.793v-16.638H76.889z"/>
<g>
	<path style="fill:#144F66;" d="M76.889,399.852v16.638c0,25.251,20.543,45.793,45.793,45.793h134.174v-62.432H76.889V399.852z"/>
	<path style="fill:#144F66;" d="M84.918,210.409c-19.222,0-34.859,15.638-34.859,34.859s15.638,34.859,34.859,34.859
		c19.223,0,34.861-15.638,34.861-34.859S104.14,210.409,84.918,210.409z"/>
</g>
<path style="fill:#0E4151;" d="M84.918,210.409c-19.222,0-34.859,15.638-34.859,34.859s15.638,34.859,34.859,34.859
	c19.223,0,34.861-15.638,34.861-34.859S104.14,210.409,84.918,210.409z"/>
<path style="fill:#144F66;" d="M84.918,210.409c-19.222,0-34.859,15.638-34.859,34.859s15.638,34.859,34.859,34.859V210.409z"/>
<path style="fill:#CFCDD6;" d="M34.859,88.319C15.638,88.319,0,103.957,0,123.18s15.638,34.859,34.859,34.859
	c19.223,0,34.861-15.638,34.861-34.859S54.082,88.319,34.859,88.319z"/>
<path style="fill:#DEE1E7;" d="M34.859,88.319C15.638,88.319,0,103.957,0,123.18s15.638,34.859,34.859,34.859V88.319z"/>
<path style="fill:#CFCDD6;" d="M477.139,88.319c-19.222,0-34.859,15.638-34.859,34.859s15.638,34.859,34.859,34.859
	c19.223,0,34.861-15.638,34.861-34.859S496.362,88.319,477.139,88.319z"/>
<path style="fill:#DEE1E7;" d="M477.139,88.319c-19.222,0-34.859,15.638-34.859,34.859s15.638,34.859,34.859,34.859V88.319z"/>
<path style="fill:#0E4151;" d="M255.999,210.409c-19.222,0-34.859,15.638-34.859,34.859s15.638,34.859,34.859,34.859
	c19.223,0,34.861-15.638,34.861-34.859S275.222,210.409,255.999,210.409z"/>
<path style="fill:#144F66;" d="M255.999,210.409c-19.222,0-34.859,15.638-34.859,34.859s15.638,34.859,34.859,34.859V210.409z"/>
<path style="fill:#0E4151;" d="M428.49,210.409c-19.222,0-34.859,15.638-34.859,34.859s15.638,34.859,34.859,34.859
	c19.223,0,34.861-15.638,34.861-34.859S447.713,210.409,428.49,210.409z"/>
<path style="fill:#144F66;" d="M428.49,210.409c-19.222,0-34.859,15.638-34.859,34.859s15.638,34.859,34.859,34.859V210.409z"/>
</svg>